inDegrees=yes
name=ik_S44_A04_T01
DataType=double
version=3
OpenSimVersion=4.3-2021-08-27-4bc7ad9
endheader
time	pelvis_tilt	pelvis_list	pelvis_rotation	pelvis_tx	pelvis_ty	pelvis_tz	hip_flexion_r	hip_adduction_r	hip_rotation_r	knee_angle_r	knee_angle_r_beta	ankle_angle_r	subtalar_angle_r	mtp_angle_r	hip_flexion_l	hip_adduction_l	hip_rotation_l	knee_angle_l	knee_angle_l_beta	ankle_angle_l	subtalar_angle_l	mtp_angle_l	lumbar_extension	lumbar_bending	lumbar_rotation	arm_flex_r	arm_add_r	arm_rot_r	elbow_flex_r	pro_sup_r	wrist_flex_r	wrist_dev_r	arm_flex_l	arm_add_l	arm_rot_l	elbow_flex_l	pro_sup_l	wrist_flex_l	wrist_dev_l
0	0	0	0	0	0.9399999999999999	0	0	0	0	0	0	0	0	0	0	0	0	0	0	0	0	0	0	0	0	0	0	0	0	89.99999999963507	0	0	0	0	0	0	89.99999999869995	0	0
0.02	18.26492797214933	18.9391261688526	39.24491036122373	0	0.9399999999999999	0	39.52550497050792	3.455630864966266	-16.77805712571932	78.95061992607863	1.377948264200714	0	0	0	44.80695189440436	4.31028893963729	-20.8458509443587	82.71101979322648	1.443579623074002	0	0	0	0	0	0	3.654995727762298	-3.654995727762298	0.6748339437444392	20.75593886656079	89.32516609580094	0	0	3.654995727762298	-3.654995727762298	0.6748339437444392	20.75593886656079	89.32516609499243	0	0
0.04	18.27248295009414	18.94798017102725	39.23566945341958	0	0.9399999999999999	0	39.51301397993908	3.463990919603985	-16.79835413575861	78.92777612740154	1.377549564700136	0	0	0	44.81136610890635	4.293492944122348	-20.83570024888514	82.69626120726691	1.443322037156068	0	0	0	0	0	0	3.970835943099799	-3.970835943099799	0.7340854815014508	22.07423910271065	89.26591456154637	0	0	3.970835943099799	-3.970835943099799	0.7340854815014508	22.07423910271065	89.26591456074897	0	0
0.06	18.29622381622686	18.97479113749286	39.23045033532936	0	0.9399999999999999	0	39.47396051042355	3.458080321342004	-16.79351985903537	78.91329952307785	1.37729690029018	0	0	0	44.75624363636988	4.272829889219953	-20.84275620570827	82.66514331019363	1.442778927395843	0	0	0	0	0	0	4.236887506863272	-4.236887506863272	0.7839323778316691	23.19067658314574	89.2160676681618	0	0	4.236887506863272	-4.236887506863272	0.7839323778316691	23.19067658314574	89.21606766737381	0	0
0.08	18.30727616366705	18.98378103090862	39.22475665788696	0	0.9399999999999999	0	39.46701247928541	3.456902567124257	-16.80701899536315	78.93249046645721	1.377631845438713	0	0	0	44.75130651053943	4.265131518685195	-20.84887797882688	82.68173322581735	1.443068476046105	0	0	0	0	0	0	4.465051765522686	-4.465051765522686	0.8264979995388625	24.12311290048732	89.17350204896734	0	0	4.465051765522686	-4.465051765522686	0.8264979995388625	24.12311290048732	89.17350204818726	0	0
0.1	18.33255202244744	19.01346238391719	39.22217974448658	0	0.9399999999999999	0	39.41647637650188	3.452762033760262	-16.78911840991308	78.90846615732869	1.377212542143903	0	0	0	44.69365143302281	4.289983323321796	-20.85718705387491	82.64593252759616	1.442443635987632	0	0	0	0	0	0	4.7970290741526	-4.7970290741526	0.8881932963999147	25.45137084686992	89.11180675574458	0	0	4.7970290741526	-4.7970290741526	0.8881932963999147	25.45137084686992	89.111806754976	0	0
0.12	18.32626209745321	18.9830176437992	39.2349198929654	0	0.9399999999999999	0	39.4596138178395	3.437087931636564	-16.80194283349942	78.93195036352779	1.377622418864295	0	0	0	44.73665365332874	4.288573605230169	-20.83373263242333	82.68816945666572	1.443180809465827	0	0	0	0	0	0	5.030643654761855	-5.030643654761855	0.9315440221816477	26.38437700538058	89.0684560325186	0	0	5.030643654761855	-5.030643654761855	0.9315440221816477	26.38437700538058	89.06845603175793	0	0
0.14	18.33664929478444	19.00674064011465	39.23156097195933	0	0.9399999999999999	0	39.40808179331545	3.42158864524592	-16.78978759898338	78.85161919333001	1.376220375452364	0	0	0	44.67648234810284	4.315169610085864	-20.8246531215628	82.57118083644059	1.441138972855534	0	0	0	0	0	0	5.3873732432635	-5.3873732432635	0.9972405834720988	27.73491695933593	89.00275947509336	0	0	5.3873732432635	-5.3873732432635	0.9972405834720988	27.73491695933593	89.00275947434498	0	0
0.16	18.35126185313377	19.01156288349562	39.20720137317179	0	0.9399999999999999	0	39.40007213288318	3.452256759187777	-16.79599543820423	78.90878738041853	1.377218148544455	0	0	0	44.67574851582593	4.292840441214929	-20.82971520499653	82.63862643648106	1.442316120642223	0	0	0	0	0	0	5.548750158864338	-5.548750158864338	1.027103219295558	28.37392873292763	88.97289684102934	0	0	5.548750158864338	-5.548750158864338	1.027103219295558	28.37392873292763	88.97289684028678	0	0
0.18	18.36058150628379	19.01576832137698	39.20624915270735	0	0.9399999999999999	0	39.38133829684874	3.465612777725447	-16.80619768556802	78.90928054591706	1.377226755906161	0	0	0	44.66468212483826	4.287478146130988	-20.82895068378383	82.65362333430194	1.442577865886783	0	0	0	0	0	0	5.779314882812598	-5.779314882812598	1.069503062063945	29.25175273880067	88.93049700075505	0	0	5.779314882812598	-5.779314882812598	1.069503062063945	29.25175273880067	88.93049700002035	0	0
0.2	18.35117554408238	19.00375011380678	39.20798878206489	0	0.9399999999999999	0	39.39991557354317	3.465902473368784	-16.7853706086997	78.93183145556868	1.377620343528902	0	0	0	44.68976082050984	4.292281651053825	-20.84094302162432	82.69228180409118	1.443252583468388	0	0	0	0	0	0	5.96681799748065	-5.96681799748065	1.103673207246391	29.92359549011863	88.89632685757769	0	0	5.96681799748065	-5.96681799748065	1.103673207246391	29.92359549011863	88.89632685684938	0	0
